Right_states
version=1
nRows=4
nColumns=140
inDegrees=yes

# SIMM Motion File Header:
name Right_states
datacolumns 140
datarows 4
otherdata 1
range 0.43425554 0.43606539
endheader
time	/jointset/sternoclavicular/sternoclavicular_r2/value	/jointset/sternoclavicular/sternoclavicular_r2/speed	/jointset/sternoclavicular/sternoclavicular_r3/value	/jointset/sternoclavicular/sternoclavicular_r3/speed	/jointset/unrotscap/unrotscap_r3/value	/jointset/unrotscap/unrotscap_r3/speed	/jointset/unrotscap/unrotscap_r2/value	/jointset/unrotscap/unrotscap_r2/speed	/jointset/acromioclavicular/acromioclavicular_r2/value	/jointset/acromioclavicular/acromioclavicular_r2/speed	/jointset/acromioclavicular/acromioclavicular_r3/value	/jointset/acromioclavicular/acromioclavicular_r3/speed	/jointset/acromioclavicular/acromioclavicular_r1/value	/jointset/acromioclavicular/acromioclavicular_r1/speed	/jointset/unrothum/unrothum_r1/value	/jointset/unrothum/unrothum_r1/speed	/jointset/unrothum/unrothum_r3/value	/jointset/unrothum/unrothum_r3/speed	/jointset/unrothum/unrothum_r2/value	/jointset/unrothum/unrothum_r2/speed	/jointset/shoulder0/elv_angle/value	/jointset/shoulder0/elv_angle/speed	/jointset/shoulder1/shoulder_elv/value	/jointset/shoulder1/shoulder_elv/speed	/jointset/shoulder1/shoulder1_r2/value	/jointset/shoulder1/shoulder1_r2/speed	/jointset/shoulder2/shoulder_rot/value	/jointset/shoulder2/shoulder_rot/speed	/jointset/elbow/elbow_flexion/value	/jointset/elbow/elbow_flexion/speed	/jointset/radioulnar/pro_sup/value	/jointset/radioulnar/pro_sup/speed	/jointset/radiocarpal/deviation/value	/jointset/radiocarpal/deviation/speed	/jointset/radiocarpal/flexion/value	/jointset/radiocarpal/flexion/speed	/jointset/wrist_hand/wrist_hand_r1/value	/jointset/wrist_hand/wrist_hand_r1/speed	/jointset/wrist_hand/wrist_hand_r3/value	/jointset/wrist_hand/wrist_hand_r3/speed	/forceset/DELT1/activation	/forceset/DELT1/fiber_length	/forceset/DELT2/activation	/forceset/DELT2/fiber_length	/forceset/DELT3/activation	/forceset/DELT3/fiber_length	/forceset/SUPSP/activation	/forceset/SUPSP/fiber_length	/forceset/INFSP/activation	/forceset/INFSP/fiber_length	/forceset/SUBSC/activation	/forceset/SUBSC/fiber_length	/forceset/TMIN/activation	/forceset/TMIN/fiber_length	/forceset/TMAJ/activation	/forceset/TMAJ/fiber_length	/forceset/PECM1/activation	/forceset/PECM2/activation	/forceset/PECM2/fiber_length	/forceset/PECM3/activation	/forceset/PECM3/fiber_length	/forceset/LAT1/activation	/forceset/LAT1/fiber_length	/forceset/LAT2/activation	/forceset/LAT2/fiber_length	/forceset/LAT3/activation	/forceset/LAT3/fiber_length	/forceset/CORB/activation	/forceset/CORB/fiber_length	/forceset/TRIlong/activation	/forceset/TRIlong/fiber_length	/forceset/TRIlat/activation	/forceset/TRIlat/fiber_length	/forceset/TRImed/activation	/forceset/TRImed/fiber_length	/forceset/ANC/activation	/forceset/ANC/fiber_length	/forceset/SUP/activation	/forceset/SUP/fiber_length	/forceset/BIClong/activation	/forceset/BIClong/fiber_length	/forceset/BICshort/activation	/forceset/BICshort/fiber_length	/forceset/BRA/activation	/forceset/BRA/fiber_length	/forceset/BRD/activation	/forceset/BRD/fiber_length	/forceset/ECRL/activation	/forceset/ECRL/fiber_length	/forceset/ECRB/activation	/forceset/ECRB/fiber_length	/forceset/ECU/activation	/forceset/ECU/fiber_length	/forceset/FCR/activation	/forceset/FCR/fiber_length	/forceset/FCU/activation	/forceset/FCU/fiber_length	/forceset/PL/activation	/forceset/PL/fiber_length	/forceset/PT/activation	/forceset/PT/fiber_length	/forceset/PQ/activation	/forceset/PQ/fiber_length	/forceset/FDSL/activation	/forceset/FDSL/fiber_length	/forceset/FDSR/activation	/forceset/FDSR/fiber_length	/forceset/FDSM/activation	/forceset/FDSM/fiber_length	/forceset/FDSI/activation	/forceset/FDSI/fiber_length	/forceset/FDPL/activation	/forceset/FDPL/fiber_length	/forceset/FDPR/activation	/forceset/FDPR/fiber_length	/forceset/FDPM/activation	/forceset/FDPM/fiber_length	/forceset/FDPI/activation	/forceset/FDPI/fiber_length	/forceset/EDCL/activation	/forceset/EDCL/fiber_length	/forceset/EDCR/activation	/forceset/EDCR/fiber_length	/forceset/EDCM/activation	/forceset/EDCM/fiber_length	/forceset/EDCI/activation	/forceset/EDCI/fiber_length	/forceset/EDM/activation	/forceset/EDM/fiber_length	/forceset/EIP/activation	/forceset/EIP/fiber_length	/forceset/EPL/activation	/forceset/EPL/fiber_length	/forceset/EPB/activation	/forceset/EPB/fiber_length	/forceset/FPL/activation	/forceset/FPL/fiber_length	/forceset/APL/activation	/forceset/APL/fiber_length
      0.43425554	      1.25562109	     11.39070071	     -0.53182183	     -4.82456321	      0.53182183	      4.82456321	     -1.25562109	    -11.39070071	      0.25423773	      2.30638519	     -2.05465990	    -18.63939382	     -0.92355548	     -8.37827924	      0.92355548	      8.37827924	      2.05465990	     18.63939382	     -0.25423773	     -2.30638519	    -34.43597035	      9.93679611	     -5.18850527	    -47.06890571	     34.43597035	     -9.93679611	     11.66058404	      4.30460391	     51.41281084	   -337.18899876	      3.17460920	    -20.80469707	     -0.06635336	      0.19275959	      0.68005703	     -1.94912233	     -5.36600475	     16.18834392	     19.48219885	    -55.83824176	      0.00110138	      0.11562001	      0.00110138	      0.10067896	      0.00110138	      0.12910801	      0.00110138	      0.07464869	      0.00110138	      0.08276700	      0.00110138	      0.08027596	      0.00110138	      0.06468020	      0.00110138	      0.12477030	      0.00110138	      0.00110138	      0.09550709	      0.00110138	      0.07501767	      0.00110138	      0.16954539	      0.00110138	      0.13456500	      0.00110138	      0.19717044	      0.00110138	      0.06481081	      0.00110138	      0.16035730	      0.00110138	      0.10232989	      0.00110138	      0.09733322	      0.00110138	      0.02282318	      0.00110138	      0.03457381	      0.00110138	      0.13952647	      0.00110138	      0.13808651	      0.00110138	      0.08160626	      0.00110138	      0.17293572	      0.00110138	      0.08495981	      0.00110138	      0.06799566	      0.00110138	      0.07272253	      0.00110138	      0.04809920	      0.00110138	      0.03288230	      0.00110138	      0.04367413	      0.00110138	      0.05142596	      0.00110138	      0.02622219	      0.00110138	      0.03279693	      0.00110138	      0.05486932	      0.00110138	      0.06137789	      0.00110138	      0.07368060	      0.00110138	      0.06551253	      0.00110138	      0.06896066	      0.00110138	      0.06506276	      0.00110138	      0.06442123	      0.00110138	      0.08551590	      0.00110138	      0.07699776	      0.00110138	      0.08838675	      0.00110138	      0.08184679	      0.00110138	      0.08405048	      0.00110138	      0.07414293	      0.00110138	      0.06587486	      0.00110138	      0.06400308	      0.00110138	      0.04866581	      0.00110138	      0.06146396
      0.43494675	      1.26347131	     11.32392178	     -0.53514682	     -4.79627880	      0.53514682	      4.79627880	     -1.26347131	    -11.32392178	      0.25582724	      2.29286381	     -2.06750577	    -18.53011881	     -0.92932961	     -8.32916088	      0.92932961	      8.32916088	      2.06750577	     18.53011881	     -0.25582724	     -2.29286381	    -34.42910458	      9.92934735	     -5.22094414	    -46.79296031	     34.42910458	     -9.92934735	     11.66361321	      4.46157656	     51.17971972	   -337.26092921	      3.16008324	    -21.22771720	     -0.06622122	      0.18959894	      0.67870937	     -1.95034481	     -5.35490840	     15.92055582	     19.44359133	    -55.87326308	      0.00109188	      0.11559800	      0.00109188	      0.10067910	      0.00109188	      0.12913044	      0.00109188	      0.07465490	      0.00109188	      0.08276899	      0.00109188	      0.08028208	      0.00109188	      0.06468236	      0.00109188	      0.12478409	      0.00109188	      0.00109188	      0.09549868	      0.00109188	      0.07501456	      0.00109188	      0.16955481	      0.00109188	      0.13458010	      0.00109188	      0.19718063	      0.00109188	      0.06480507	      0.00109188	      0.16027972	      0.00109188	      0.10232189	      0.00109188	      0.09732538	      0.00109188	      0.02282133	      0.00109188	      0.03457194	      0.00109188	      0.13964761	      0.00109188	      0.13820336	      0.00109188	      0.08166479	      0.00109188	      0.17314426	      0.00109188	      0.08501743	      0.00109188	      0.06798895	      0.00109188	      0.07269363	      0.00109188	      0.04817087	      0.00109188	      0.03293787	      0.00109188	      0.04375892	      0.00109188	      0.05147271	      0.00109188	      0.02622403	      0.00109188	      0.03287034	      0.00109188	      0.05493806	      0.00109188	      0.06140583	      0.00109188	      0.07370875	      0.00109188	      0.06553457	      0.00109188	      0.06898405	      0.00109188	      0.06508704	      0.00109188	      0.06444586	      0.00109188	      0.08549311	      0.00109188	      0.07696698	      0.00109188	      0.08835702	      0.00109188	      0.08181862	      0.00109188	      0.08402297	      0.00109188	      0.07412882	      0.00109188	      0.06586891	      0.00109188	      0.06401122	      0.00109188	      0.04869033	      0.00109188	      0.06148509
      0.43554483	      1.27022665	     11.26588127	     -0.53800806	     -4.77169559	      0.53800806	      4.77169559	     -1.27022665	    -11.26588127	      0.25719506	      2.28111179	     -2.07856000	    -18.43514310	     -0.93429841	     -8.28646995	      0.93429841	      8.28646995	      2.07856000	     18.43514310	     -0.25719506	     -2.28111179	    -34.42316791	      9.92285888	     -5.24885871	    -46.55312405	     34.42316791	     -9.92285888	     11.66632343	      4.60185067	     50.97799098	   -337.31874877	      3.14727764	    -21.59283452	     -0.06610864	      0.18684656	      0.67754259	     -1.95136532	     -5.34545582	     15.68746678	     19.41016537	    -55.90249843	      0.00108372	      0.11557906	      0.00108372	      0.10067921	      0.00108372	      0.12914973	      0.00108372	      0.07466024	      0.00108372	      0.08277074	      0.00108372	      0.08028732	      0.00108372	      0.06468425	      0.00108372	      0.12479362	      0.00108372	      0.00108372	      0.09549146	      0.00108372	      0.07501188	      0.00108372	      0.16956291	      0.00108372	      0.13459309	      0.00108372	      0.19718941	      0.00108372	      0.06480014	      0.00108372	      0.16021245	      0.00108372	      0.10231502	      0.00108372	      0.09731865	      0.00108372	      0.02281974	      0.00108372	      0.03457028	      0.00108372	      0.13975207	      0.00108372	      0.13830420	      0.00108372	      0.08171523	      0.00108372	      0.17332404	      0.00108372	      0.08506708	      0.00108372	      0.06798318	      0.00108372	      0.07266858	      0.00108372	      0.04823284	      0.00108372	      0.03298595	      0.00108372	      0.04383221	      0.00108372	      0.05151315	      0.00108372	      0.02622566	      0.00108372	      0.03293379	      0.00108372	      0.05499753	      0.00108372	      0.06143003	      0.00108372	      0.07373311	      0.00108372	      0.06555366	      0.00108372	      0.06900430	      0.00108372	      0.06510806	      0.00108372	      0.06446718	      0.00108372	      0.08547332	      0.00108372	      0.07694025	      0.00108372	      0.08833121	      0.00108372	      0.08179414	      0.00108372	      0.08399911	      0.00108372	      0.07411658	      0.00108372	      0.06586373	      0.00108372	      0.06401822	      0.00108372	      0.04871155	      0.00108372	      0.06150333
      0.43606539	      1.27607803	     11.21514300	     -0.54048642	     -4.75020525	      0.54048642	      4.75020525	     -1.27607803	    -11.21514300	      0.25837984	      2.27083832	     -2.08813501	    -18.35211656	     -0.93860231	     -8.24915009	      0.93860231	      8.24915009	      2.08813501	     18.35211656	     -0.25837984	     -2.27083832	    -34.41800394	      9.91718828	     -5.27303788	    -46.34346225	     34.41800394	     -9.91718828	     11.66875175	      4.72858717	     50.80238386	   -337.36580463	      3.13595373	    -21.91487697	     -0.06601199	      0.18451470	      0.67652655	     -1.95229657	     -5.33734132	     15.49001360	     19.38105789	    -55.92917684	      0.00107667	      0.11556265	      0.00107667	      0.10067929	      0.00107667	      0.12916645	      0.00107667	      0.07466487	      0.00107667	      0.08277228	      0.00107667	      0.08029184	      0.00107667	      0.06468590	      0.00107667	      0.12480520	      0.00107667	      0.00107667	      0.09548522	      0.00107667	      0.07500957	      0.00107667	      0.16956991	      0.00107667	      0.13460433	      0.00107667	      0.19719701	      0.00107667	      0.06479588	      0.00107667	      0.16015378	      0.00107667	      0.10230909	      0.00107667	      0.09731283	      0.00107667	      0.02281837	      0.00107667	      0.03456882	      0.00107667	      0.13984270	      0.00107667	      0.13839175	      0.00107667	      0.08175897	      0.00107667	      0.17348001	      0.00107667	      0.08511015	      0.00107667	      0.06797818	      0.00107667	      0.07264676	      0.00107667	      0.04828674	      0.00107667	      0.03302779	      0.00107667	      0.04389594	      0.00107667	      0.05154834	      0.00107667	      0.02622709	      0.00107667	      0.03298896	      0.00107667	      0.05504928	      0.00107667	      0.06145109	      0.00107667	      0.07375433	      0.00107667	      0.06557029	      0.00107667	      0.06902194	      0.00107667	      0.06512637	      0.00107667	      0.06448573	      0.00107667	      0.08545604	      0.00107667	      0.07691690	      0.00107667	      0.08830868	      0.00107667	      0.08177276	      0.00107667	      0.08397831	      0.00107667	      0.07410591	      0.00107667	      0.06585920	      0.00107667	      0.06402429	      0.00107667	      0.04873002	      0.00107667	      0.06151918
